<?xml version="1.0" encoding="iso-8859-1"?>
<!-- Uploaded to: SVG Repo, www.svgrepo.com, Generator: SVG Repo Mixer Tools -->
<svg height="800px" width="800px" version="1.1" id="Layer_1" xmlns="http://www.w3.org/2000/svg" xmlns:xlink="http://www.w3.org/1999/xlink" 
	 viewBox="0 0 512 512" xml:space="preserve">
<path style="fill:#2D2D2D;" d="M372.291,91.803h-17.662V52.296c-0.032-4.842-3.977-8.748-8.819-8.732h-83.016
	c-4.826,0.008-8.748,3.905-8.779,8.732v39.507h-17.67V52.296c0.071-14.55,11.899-26.291,26.449-26.259h83.023
	c14.558-0.048,26.402,11.701,26.473,26.259L372.291,91.803L372.291,91.803z"/>
<path style="fill:#999999;" d="M202.863,81.547l-39.626,189.996h282.132L405.742,81.547
	C405.742,81.547,202.863,81.547,202.863,81.547z"/>
<g>
	<path style="fill:#FFFFFF;" d="M261.692,148.655c-8.446-0.056-15.257-6.946-15.201-15.392c0.056-8.446,6.946-15.257,15.392-15.201
		c8.414,0.056,15.201,6.882,15.201,15.296C277.059,141.836,270.169,148.679,261.692,148.655L261.692,148.655z M346.922,148.655
		c-8.446-0.056-15.257-6.946-15.201-15.392c0.056-8.446,6.946-15.257,15.392-15.201c8.414,0.056,15.201,6.882,15.201,15.296
		C362.29,141.836,355.399,148.679,346.922,148.655c-0.008,0-0.024,0-0.032,0H346.922z"/>
	<circle style="fill:#FFFFFF;" cx="442.646" cy="255.365" r="67.338"/>
</g>
<path style="fill:#CCCCCC;" d="M442.646,324.711c-38.285-0.016-69.307-31.069-69.291-69.354s31.069-69.307,69.354-69.291
	C480.986,186.082,512,217.112,512,255.389C511.952,293.666,480.923,324.687,442.646,324.711z M442.646,190.035
	c-36.094,0.016-65.338,29.291-65.322,65.385s29.291,65.338,65.385,65.322c36.078-0.016,65.322-29.275,65.322-65.353
	C507.983,219.303,478.732,190.067,442.646,190.035L442.646,190.035z"/>
<path style="fill:#E21B1B;" d="M439.407,292.332v-9.049c-5.295-0.064-10.486-1.484-15.082-4.112l2.516-8.732
	c4.406,2.62,9.422,4.032,14.55,4.112c5.874,0,9.883-2.889,9.883-7.374c0-4.191-3.263-6.898-10.161-9.422
	c-9.796-3.54-16.138-8.025-16.138-16.67c0.167-8.375,6.668-15.241,15.019-15.876v-9.137h7.652v8.676
	c4.469,0.056,8.859,1.103,12.867,3.08l-2.516,8.581c-3.921-2.056-8.271-3.143-12.701-3.175c-6.525,0-8.859,3.358-8.859,6.525
	c0,3.818,3.358,5.969,11.288,9.137c10.438,3.913,15.082,8.954,15.082,17.257c-0.183,8.764-7.001,15.955-15.749,16.598v9.613
	L439.407,292.332z"/>
<path style="fill:#2D2D2D;" d="M209.031,255.04h-17.63v-39.515c-0.024-4.85-3.977-8.771-8.827-8.748l0,0H99.566
	c-4.842-0.016-8.787,3.89-8.819,8.732v39.507H73.109v-39.491c0.071-14.55,11.899-26.291,26.449-26.259h83.015
	c14.55-0.032,26.378,11.709,26.449,26.259L209.031,255.04z"/>
<path style="fill:#E21B1B;" d="M39.626,244.784L0,434.779h282.14l-39.626-189.996H39.626z"/>
<path style="fill:#FFFFFF;" d="M98.431,311.883c-8.446-0.056-15.257-6.946-15.201-15.392c0.056-8.446,6.946-15.257,15.392-15.201
	c8.414,0.056,15.201,6.882,15.201,15.296C113.799,305.065,106.909,311.907,98.431,311.883L98.431,311.883z M183.661,311.883
	c-8.446-0.056-15.257-6.946-15.201-15.392c0.056-8.446,6.946-15.257,15.392-15.201c8.414,0.056,15.201,6.882,15.201,15.296
	c-0.024,8.462-6.906,15.312-15.368,15.297H183.661z"/>
<circle style="fill:#2D2D2D;" cx="279.417" cy="418.626" r="67.338"/>
<path style="fill:#FFFFFF;" d="M276.17,455.569v-9.049c-5.295-0.064-10.486-1.484-15.082-4.112l2.516-8.732
	c4.406,2.62,9.422,4.033,14.55,4.112c5.874,0,9.883-2.889,9.883-7.374c0-4.191-3.262-6.898-10.161-9.422
	c-9.795-3.54-16.138-8.025-16.138-16.67c0.167-8.375,6.668-15.241,15.019-15.876v-9.168h7.652v8.676
	c4.469,0.056,8.859,1.103,12.867,3.08l-2.516,8.581c-3.921-2.056-8.271-3.143-12.701-3.175c-6.525,0-8.859,3.358-8.859,6.525
	c0,3.818,3.358,5.969,11.288,9.137c10.438,3.913,15.082,8.954,15.082,17.257c-0.183,8.771-7.009,15.963-15.757,16.598v9.613
	L276.17,455.569z"/>
</svg>